PathFileType	4	(X/Y/Z)	Kaydara	
DataRate	CameraRate	NumFrames	NumMarkers	Units	OrigDataRate	OrigDataStartFrame	OrigNumFrames	
60.00	60.00	4	74	mm	60.00	1027	200	
Frame#	Time	N_lasi			N_rasi			N_rpsi			N_lpsi			N_fneck			N_bneck			N_fhead			N_rhead			N_lhead			N_rshld			N_relbtop			N_relbext			N_relblow			N_rwrext			N_rwrtop			N_rwrlow			N_lshld			N_lelbext			N_lelbtop			N_lwrext			N_lwrtop			N_lwrlow			N_rtopleg			N_ltopleg			N_rkneefr			N_rkneebk			N_rkneeis			N_lkneefr			N_lknssbk			N_lkneeis			N_rankfr			N_rankis			N_rankbk			N_lankfr			N_lankbk			N_lankis			Z_lasi			Z_rasi			Z_rpsi			Z_lpsi			Z_fneck			Z_bneck			Z_fhead			Z_rhead			Z_lhead			Z_rshld			Z_relbtop			Z_relbext			Z_relblow			Z_rwrext			Z_rwrtop			Z_rwrlow			Z_lshld			Z_lelbext			Z_lelblow			Z_lelbtop			Z_lwrext			Z_lwrtop			Z_lwrlow			Z_rtopleg			Z_ltopleg			Z_rkneefr			Z_rkneebk			Z_rkneeis			Z_lkneefr			Z_lknssbk			Z_lkneeis			Z_rankfr			Z_rankis			Z_lankfr			Z_lankbk			Z_lankis			N_lelblow			Z_rankbk			
		X1	Y1	Z1	X2	Y2	Z2	X3	Y3	Z3	X4	Y4	Z4	X5	Y5	Z5	X6	Y6	Z6	X7	Y7	Z7	X8	Y8	Z8	X9	Y9	Z9	X10	Y10	Z10	X11	Y11	Z11	X12	Y12	Z12	X13	Y13	Z13	X14	Y14	Z14	X15	Y15	Z15	X16	Y16	Z16	X17	Y17	Z17	X18	Y18	Z18	X19	Y19	Z19	X20	Y20	Z20	X21	Y21	Z21	X22	Y22	Z22	X23	Y23	Z23	X24	Y24	Z24	X25	Y25	Z25	X26	Y26	Z26	X27	Y27	Z27	X28	Y28	Z28	X29	Y29	Z29	X30	Y30	Z30	X31	Y31	Z31	X32	Y32	Z32	X33	Y33	Z33	X34	Y34	Z34	X35	Y35	Z35	X36	Y36	Z36	X37	Y37	Z37	X38	Y38	Z38	X39	Y39	Z39	X40	Y40	Z40	X41	Y41	Z41	X42	Y42	Z42	X43	Y43	Z43	X44	Y44	Z44	X45	Y45	Z45	X46	Y46	Z46	X47	Y47	Z47	X48	Y48	Z48	X49	Y49	Z49	X50	Y50	Z50	X51	Y51	Z51	X52	Y52	Z52	X53	Y53	Z53	X54	Y54	Z54	X55	Y55	Z55	X56	Y56	Z56	X57	Y57	Z57	X58	Y58	Z58	X59	Y59	Z59	X60	Y60	Z60	X61	Y61	Z61	X62	Y62	Z62	X63	Y63	Z63	X64	Y64	Z64	X65	Y65	Z65	X66	Y66	Z66	X67	Y67	Z67	X68	Y68	Z68	X69	Y69	Z69	X70	Y70	Z70	X71	Y71	Z71	X72	Y72	Z72	X73	Y73	Z73	X74	Y74	Z74	

76	17.100	-119.58297	1022.99454	-784.27170	-110.04400	1027.71812	-1010.90988	132.68831	1088.32970	-982.85912	89.10850	1081.31508	-746.15425	-135.02502	1485.44907	-919.04648	-15.24709	1569.97162	-901.51451	-261.10220	1672.23694	-884.48990	-113.99282	1701.24786	-980.54367	-102.87556	1695.06042	-823.63304	13.60374	1456.97449	-1112.84607	150.04148	1176.55907	-1150.27061	138.16582	1165.00504	-1068.77769	76.47732	1167.71034	-1142.02026	95.74060	921.25580	-1181.85280	49.56799	932.41417	-1200.48218	23.83772	931.62354	-1162.23610	-103.81110	1485.59525	-690.96191	-127.19183	1194.99268	-689.91386	-175.25532	1215.80551	-649.82498	-307.16476	1060.17380	-794.09935	-327.42775	1104.39369	-817.64442	-291.94347	1107.96570	-851.97739	29.12037	910.33966	-1107.69394	-9.26404	887.93098	-699.70352	-201.67484	520.09300	-1107.30324	-80.97039	525.31017	-1103.87367	-139.53900	504.70116	-1006.53061	43.73809	460.83263	-900.11299	87.28035	486.06754	-802.31003	146.55966	507.65316	-913.07625	-234.85420	221.86481	-1151.49742	-209.21186	206.38235	-1083.55980	-171.23446	200.09165	-1155.50941	153.29534	154.88045	-890.33310	243.00274	186.54064	-899.59541	186.83702	181.60421	-948.49815	-383.33763	974.06647	748.90274	-265.97408	996.75880	958.12790	-451.60622	1044.98581	1032.90024	-539.38251	1026.19972	862.69058	-333.37219	1428.44650	786.32721	-385.77858	1509.01779	859.97620	-254.68573	1549.68994	678.02208	-262.57025	1615.32211	857.96989	-379.89296	1618.26843	799.77585	-272.39695	1381.96609	1058.33084	-300.65283	1092.63718	1149.79080	-316.25202	1077.47231	1082.55081	-226.38006	1114.63135	1115.65170	-195.48182	850.78239	1130.43137	-152.69689	862.16652	1120.58640	-160.63889	872.09091	1075.90904	-512.13074	1394.45709	692.29393	-519.99451	1077.56676	747.17148	-533.56606	1104.34364	661.57616	-581.52977	1054.09622	710.12627	-422.15824	913.81119	619.37511	-402.43412	944.23271	596.02825	-373.94760	957.20146	629.81903	-311.81149	898.81714	1072.43370	-476.38641	886.48209	756.92673	-162.94956	444.96330	1041.48148	-215.77465	483.34282	1104.03343	-251.38165	454.09054	995.94658	-360.65716	398.07354	873.10913	-439.94865	414.88838	840.78690	-424.07692	434.57191	958.31406	-235.22701	191.86565	1110.93468	-308.82227	192.38417	1076.55655	-411.63033	160.51548	972.16629	-468.48946	147.20860	917.11288	-486.77010	159.01912	980.02182	-147.99130	1203.49045	-722.96295	-302.44400	199.33990	1147.97630 
77	17.117	-134.76798	1019.17885	-787.86530	-129.37199	1023.09540	-1015.00374	113.87897	1083.60893	-990.62477	73.84690	1078.25020	-753.00385	-153.60548	1480.85327	-923.41385	-33.71319	1565.73212	-907.71645	-279.40395	1667.73239	-887.96730	-133.52500	1696.55914	-985.99106	-120.30965	1690.85297	-829.19777	-7.63521	1452.34390	-1119.24828	128.89606	1172.20497	-1158.05840	118.18679	1160.89890	-1076.00594	55.73519	1163.23372	-1148.47549	74.70165	916.69510	-1188.33435	28.22288	927.69241	-1206.20575	3.12212	926.96281	-1167.46666	-119.16073	1481.65161	-695.73662	-141.79516	1191.39618	-692.67342	-188.63459	1212.30026	-651.87096	-324.40178	1061.82770	-796.75133	-344.06601	1106.62598	-819.48814	-308.80852	1110.06165	-854.01390	8.51441	905.39345	-1112.76726	-22.35738	885.43640	-703.94096	-223.67744	518.27545	-1108.09898	-102.12893	518.54523	-1105.65331	-159.73537	499.87759	-1007.27974	33.95726	457.91874	-901.49109	79.09213	484.78924	-805.21523	135.55695	506.97998	-917.25090	-280.29291	225.15787	-1152.46437	-255.34721	207.86154	-1084.39682	-218.61546	198.15525	-1157.08900	151.38458	154.79228	-890.40405	240.11641	188.53584	-900.67947	183.61057	181.86874	-948.96675	-373.95699	974.50096	742.31522	-253.21629	996.02119	950.48775	-436.94832	1044.50050	1029.28032	-528.16044	1026.51421	860.77858	-322.16827	1427.87018	780.27382	-373.01434	1508.53928	855.01877	-244.90240	1549.09760	670.55519	-249.84539	1614.58359	850.87212	-368.38749	1617.68738	794.78897	-254.94930	1380.92484	1050.40512	-281.26360	1091.85349	1142.56523	-298.47248	1076.20079	1076.66901	-208.07875	1113.39417	1106.27007	-177.98428	849.54559	1123.08197	-135.27292	860.62508	1111.59401	-144.43480	870.09369	1067.00584	-503.33252	1394.43878	690.34210	-510.40985	1077.58751	744.05525	-525.32566	1105.07584	658.97522	-572.29301	1053.65753	707.41669	-411.15601	917.24274	613.68042	-392.35767	948.29872	590.52784	-363.64113	961.51657	624.29306	-296.69760	897.71187	1065.34065	-468.36143	886.63261	753.98590	-145.12127	444.87087	1026.97121	-197.02858	480.11967	1092.67242	-235.16758	449.88255	985.76019	-358.15052	397.81315	871.12297	-437.93037	415.44292	839.56993	-419.85916	435.42286	956.85944	-193.56461	187.84395	1095.52460	-268.45451	183.10398	1064.03992	-410.57827	160.86103	971.41953	-467.76600	147.63796	917.05200	-485.70137	159.86389	979.89624	-163.81868	1199.80293	-726.43608	-259.43863	189.56947	1135.49110 
78	17.133	-150.78923	1015.17593	-791.34476	-149.12764	1018.06236	-1018.94920	94.79714	1078.61885	-998.18718	58.39053	1074.57130	-759.60419	-172.62600	1476.15829	-927.60559	-52.61835	1561.16623	-913.98323	-298.07356	1663.32581	-891.46576	-153.37331	1691.64932	-991.44592	-138.10809	1686.29211	-834.75204	-29.11077	1447.38831	-1125.52773	107.41451	1167.52045	-1165.57503	97.82651	1156.45294	-1082.99873	34.56671	1158.40759	-1154.73106	53.56423	911.79558	-1194.70940	6.56529	922.74185	-1211.99509	-17.78528	921.96022	-1172.83081	-135.34946	1477.16965	-700.70358	-154.87634	1187.19917	-694.63966	-202.05887	1208.09196	-654.22882	-341.26583	1061.57379	-798.22456	-360.18982	1106.87241	-820.55954	-325.19848	1109.98245	-855.40741	-12.80097	900.47707	-1117.82196	-36.41592	882.38525	-708.18756	-245.32639	516.29608	-1108.37799	-123.46158	511.30306	-1106.48010	-180.56099	494.82258	-1007.77344	23.47815	454.82510	-904.33159	69.77602	483.29002	-808.49304	123.39186	506.19305	-921.94588	-321.84666	228.50321	-1152.50870	-297.40412	209.17374	-1084.99969	-262.21247	197.40831	-1158.13408	149.01393	154.80297	-890.70808	236.58510	190.75859	-901.85410	179.97065	182.43668	-949.84787	-364.23313	976.89476	730.45189	-240.63650	994.61617	942.65091	-422.28146	1044.00787	1025.60394	-517.00829	1026.88805	859.21219	-310.65105	1427.09106	774.29817	-359.98466	1507.78152	850.13763	-234.96958	1548.29056	663.72032	-237.09993	1613.67203	843.72635	-356.25870	1616.93192	789.32472	-237.34304	1379.61411	1042.43462	-261.85537	1090.90378	1135.18837	-279.45597	1074.62990	1068.35754	-189.62736	1112.04483	1096.41724	-160.05453	848.23898	1115.29495	-118.32681	857.99690	1101.15883	-128.52057	867.84660	1057.72087	-494.26819	1394.69955	687.90062	-500.43201	1077.36084	740.67940	-516.47259	1105.45654	656.12267	-562.79465	1053.44872	704.48051	-401.13590	919.17732	608.25016	-383.11043	950.67062	584.91802	-353.99948	963.89679	619.05369	-281.63382	896.64650	1058.06351	-460.81135	886.68938	751.40678	-128.38100	444.44126	1012.81120	-178.79284	476.00410	1080.93445	-220.20771	445.42572	975.35767	-355.50125	397.32662	868.70506	-435.74688	415.82584	838.73466	-415.15018	436.20136	955.36980	-152.78081	185.42782	1078.06610	-228.13797	175.25097	1049.91798	-409.29974	161.00691	971.50856	-466.96445	148.27574	916.68938	-484.24133	160.77757	979.84276	-176.55674	1195.61745	-728.01056	-217.02980	181.51516	1121.09238 
79	17.150	-167.37238	1011.14883	-794.39430	-169.15636	1012.93655	-1022.55447	75.36595	1073.42445	-1005.54100	42.62443	1070.61646	-766.07658	-192.11994	1471.17905	-932.38228	-72.05623	1556.48483	-920.15259	-316.86152	1658.69980	-894.93767	-173.55930	1686.64948	-997.01706	-156.37283	1681.77216	-840.79834	-50.81190	1442.22000	-1131.89735	85.63969	1162.50412	-1172.94571	77.09611	1151.70067	-1090.12344	12.95126	1153.30078	-1161.39626	32.33733	906.63078	-1201.01883	-14.87913	917.34360	-1217.61978	-38.72205	916.61209	-1177.92458	-151.98843	1472.47665	-705.66460	-168.74228	1182.56187	-696.85547	-215.38868	1203.65211	-656.31149	-357.17018	1059.45938	-798.63434	-375.96504	1104.71703	-820.94032	-341.39385	1107.63245	-856.14616	-34.63104	895.29404	-1122.48024	-51.14651	879.40216	-712.34123	-267.71658	514.21803	-1107.87247	-145.70578	504.93805	-1107.61826	-201.24516	490.09735	-1008.45039	11.30544	451.14407	-904.56314	59.23290	482.11441	-812.35062	110.09166	505.09758	-927.12051	-359.42959	231.61768	-1151.21849	-334.38866	211.00544	-1084.55276	-301.53591	197.48028	-1158.56201	146.45353	155.18972	-891.82144	232.60128	193.32010	-903.26515	175.84948	183.19532	-950.90462	-355.57564	977.02957	723.67233	-227.81975	992.86644	935.27847	-407.34016	1043.56544	1021.99120	-505.92796	1026.99974	857.98119	-298.66894	1426.08643	769.00772	-346.82274	1506.92169	844.96384	-224.29546	1547.24411	656.64291	-223.92082	1612.44507	836.71547	-344.19178	1615.91431	784.05350	-220.02884	1378.39523	1034.47067	-242.43824	1089.89136	1127.67906	-261.91427	1073.37234	1061.27060	-171.59847	1110.43480	1086.23047	-141.63759	846.90414	1106.74759	-98.82856	857.68051	1093.19412	-112.55930	865.49889	1047.97829	-484.13097	1394.42642	685.67993	-490.54741	1077.11510	737.25861	-506.87309	1105.59227	652.89009	-552.90062	1053.31619	701.30920	-392.02679	919.55276	603.04485	-374.48406	951.31485	579.93347	-344.88449	964.54941	612.92961	-266.59647	894.83063	1051.04187	-453.26942	886.67465	749.08875	-112.77983	443.50136	998.37273	-161.44464	471.52325	1069.43260	-205.78892	440.69084	964.62234	-352.21672	396.82793	865.80666	-433.15708	416.19358	837.72713	-409.74766	436.70876	953.91830	-113.29089	184.80213	1058.85170	-188.67098	169.29089	1034.68079	-407.87956	161.21647	970.72678	-465.89146	148.79656	916.77505	-482.57385	161.89793	979.86893	-190.95881	1190.78247	-730.35950	-175.88749	175.14109	1105.25414 
